<?xml version="1.0" standalone="no"?>
<!DOCTYPE svg PUBLIC "-//W3C//DTD SVG 20010904//EN"
 "http://www.w3.org/TR/2001/REC-SVG-20010904/DTD/svg10.dtd">
<svg version="1.0" xmlns="http://www.w3.org/2000/svg"
 width="1300.000000pt" height="1300.000000pt" viewBox="0 0 1300.000000 1300.000000"
 preserveAspectRatio="xMidYMid meet">
<metadata>
Created by potrace 1.11, written by Peter Selinger 2001-2013
</metadata>
<g transform="translate(0.000000,1300.000000) scale(0.100000,-0.100000)"
fill="#000000" stroke="none">
<path d="M5785 11969 c-84 -12 -116 -19 -178 -40 -277 -93 -486 -319 -569
-614 l-22 -80 -2 -4260 c-1 -2343 -3 -4291 -5 -4330 -7 -220 -143 -444 -344
-566 -120 -73 -245 -107 -388 -107 -337 0 -612 209 -714 543 -17 58 -18 177
-19 2930 -1 1579 -4 2893 -8 2920 -14 116 -41 200 -93 295 -145 268 -426 431
-729 425 -268 -6 -488 -122 -655 -345 -59 -79 -122 -234 -136 -338 -10 -73
-10 -6982 0 -7042 46 -275 223 -517 472 -643 74 -37 194 -75 267 -84 80 -10
4584 -10 4658 -1 133 18 294 81 385 151 193 149 297 304 353 526 15 60 16 257
17 2188 l2 2123 -976 1 c-537 0 -994 3 -1016 5 -130 16 -301 99 -408 198 -97
91 -192 268 -212 397 -54 345 137 666 470 792 39 14 99 31 135 37 41 6 420 10
1038 10 919 0 972 1 973 18 0 9 2 672 3 1472 2 1103 5 1467 14 1505 56 228
200 407 407 504 102 48 188 66 310 66 124 -1 191 -13 285 -52 219 -90 374
-269 437 -504 16 -60 17 -262 18 -2964 1 -2749 2 -2904 19 -2978 20 -84 86
-223 138 -290 230 -295 601 -398 957 -265 53 20 179 95 208 124 8 7 22 19 31
26 39 29 133 148 167 211 38 70 73 162 82 212 2 17 8 49 12 71 5 23 8 1600 8
3505 0 2854 -2 3475 -13 3533 -47 246 -181 447 -389 581 -87 56 -152 85 -266
117 l-74 21 -2300 2 c-1265 1 -2322 -2 -2350 -6z"/>
</g>
</svg>
